<?xml version="1.0" encoding="UTF-8" standalone="no"?>
<svg
   xmlns:dc="http://purl.org/dc/elements/1.1/"
   xmlns:cc="http://creativecommons.org/ns#"
   xmlns:rdf="http://www.w3.org/1999/02/22-rdf-syntax-ns#"
   xmlns:svg="http://www.w3.org/2000/svg"
   xmlns="http://www.w3.org/2000/svg"
   height="272.10001"
   width="1408.3"
   version="1.1"
   viewBox="0 0 1408.3 272.1"
   id="Layer_1">
  <metadata
     id="metadata826">
    <rdf:RDF>
      <cc:Work
         rdf:about="">
        <dc:format>image/svg+xml</dc:format>
        <dc:type
           rdf:resource="http://purl.org/dc/dcmitype/StillImage" />
        <dc:title></dc:title>
      </cc:Work>
    </rdf:RDF>
  </metadata>
  <defs
     id="defs824" />
  <style
     id="style815">.st0{fill:#FFFFFF;}</style>
  <path
     style="fill:#ffffff"
     id="path817"
     d="m 142.8,120.1 c -5.7,0 -10.2,4.9 -10.2,11 0,6.1 4.6,11 10.2,11 5.7,0 10.2,-4.9 10.2,-11 0,-6.1 -4.6,-11 -10.2,-11 z m -36.5,0 c -5.7,0 -10.2,4.9 -10.2,11 0,6.1 4.6,11 10.2,11 5.7,0 10.2,-4.9 10.2,-11 0.1,-6.1 -4.5,-11 -10.2,-11 z"
     class="st0" />
  <path
     style="fill:#ffffff"
     id="path819"
     d="m 191.4,36.9 h -134 c -11.3,0 -20.5,9.2 -20.5,20.5 v 134 c 0,11.3 9.2,20.5 20.5,20.5 h 113.4 l -5.3,-18.3 12.8,11.8 12.1,11.1 21.6,18.7 V 57.4 C 211.9,46.1 202.7,36.9 191.4,36.9 Z m -38.6,129.5 c 0,0 -3.6,-4.3 -6.6,-8 13.1,-3.7 18.1,-11.8 18.1,-11.8 -4.1,2.7 -8,4.6 -11.5,5.9 -5,2.1 -9.8,3.4 -14.5,4.3 -9.6,1.8 -18.4,1.3 -25.9,-0.1 -5.7,-1.1 -10.6,-2.6 -14.7,-4.3 -2.3,-0.9 -4.8,-2 -7.3,-3.4 -0.3,-0.2 -0.6,-0.3 -0.9,-0.5 -0.2,-0.1 -0.3,-0.2 -0.4,-0.2 -1.8,-1 -2.8,-1.7 -2.8,-1.7 0,0 4.8,7.9 17.5,11.7 -3,3.8 -6.7,8.2 -6.7,8.2 C 75,165.8 66.6,151.4 66.6,151.4 66.6,119.5 81,93.6 81,93.6 95.4,82.9 109,83.2 109,83.2 l 1,1.2 c -18,5.1 -26.2,13 -26.2,13 0,0 2.2,-1.2 5.9,-2.8 10.7,-4.7 19.2,-5.9 22.7,-6.3 0.6,-0.1 1.1,-0.2 1.7,-0.2 6.1,-0.8 13,-1 20.2,-0.2 9.5,1.1 19.7,3.9 30.1,9.5 0,0 -7.9,-7.5 -24.9,-12.6 l 1.4,-1.6 c 0,0 13.7,-0.3 28,10.4 0,0 14.4,25.9 14.4,57.8 0,-0.1 -8.4,14.3 -30.5,15 z m 151,-86.7 H 270.6 V 117 l 22.1,19.9 v -36.2 h 11.8 c 7.5,0 11.2,3.6 11.2,9.4 v 27.7 c 0,5.8 -3.5,9.7 -11.2,9.7 h -34 v 21.1 h 33.2 c 17.8,0.1 34.5,-8.8 34.5,-29.2 V 109.6 C 338.3,88.8 321.6,79.7 303.8,79.7 Z m 174,59.7 v -30.6 c 0,-11 19.8,-13.5 25.8,-2.5 l 18.3,-7.4 c -7.2,-15.8 -20.3,-20.4 -31.2,-20.4 -17.8,0 -35.4,10.3 -35.4,30.3 v 30.6 c 0,20.2 17.6,30.3 35,30.3 11.2,0 24.6,-5.5 32,-19.9 l -19.6,-9 c -4.8,12.3 -24.9,9.3 -24.9,-1.4 z M 417.3,113 c -6.9,-1.5 -11.5,-4 -11.8,-8.3 0.4,-10.3 16.3,-10.7 25.6,-0.8 l 14.7,-11.3 c -9.2,-11.2 -19.6,-14.2 -30.3,-14.2 -16.3,0 -32.1,9.2 -32.1,26.6 0,16.9 13,26 27.3,28.2 7.3,1 15.4,3.9 15.2,8.9 -0.6,9.5 -20.2,9 -29.1,-1.8 l -14.2,13.3 c 8.3,10.7 19.6,16.1 30.2,16.1 16.3,0 34.4,-9.4 35.1,-26.6 1,-21.7 -14.8,-27.2 -30.6,-30.1 z m -67,55.5 h 22.4 V 79.7 H 350.3 Z M 728,79.7 H 694.8 V 117 l 22.1,19.9 v -36.2 h 11.8 c 7.5,0 11.2,3.6 11.2,9.4 v 27.7 c 0,5.8 -3.5,9.7 -11.2,9.7 h -34 v 21.1 H 728 c 17.8,0.1 34.5,-8.8 34.5,-29.2 V 109.6 C 762.5,88.8 745.8,79.7 728,79.7 Z M 565.1,78.5 c -18.4,0 -36.7,10 -36.7,30.5 v 30.3 c 0,20.3 18.4,30.5 36.9,30.5 18.4,0 36.7,-10.2 36.7,-30.5 V 109 C 602,88.6 583.5,78.5 565.1,78.5 Z m 14.4,60.8 c 0,6.4 -7.2,9.7 -14.3,9.7 -7.2,0 -14.4,-3.1 -14.4,-9.7 V 109 c 0,-6.5 7,-10 14,-10 7.3,0 14.7,3.1 14.7,10 z M 682.4,109 c -0.5,-20.8 -14.7,-29.2 -33,-29.2 h -35.5 v 88.8 h 22.7 v -28.2 h 4 l 20.6,28.2 h 28 L 665,138.1 c 10.7,-3.4 17.4,-12.7 17.4,-29.1 z m -32.6,12 h -13.2 v -20.3 h 13.2 c 14.1,0 14.1,20.3 0,20.3 z"
     class="st0" />
  <g
     id="text830"
     style="font-style:normal;font-weight:normal;font-size:125.54907227px;line-height:1.25;font-family:sans-serif;letter-spacing:0px;word-spacing:0px;fill:#ffffff;fill-opacity:1;stroke:none;stroke-width:3.13872671"
     aria-label="POWERED">
    <path
       id="path834"
       style="font-style:normal;font-variant:normal;font-weight:900;font-stretch:normal;font-size:125.54907227px;font-family:'Uni Sans';-inkscape-font-specification:'Uni Sans, Heavy';font-variant-ligatures:normal;font-variant-caps:normal;font-variant-numeric:normal;font-feature-settings:normal;text-align:start;writing-mode:lr-tb;text-anchor:start;fill:#ffffff;stroke-width:3.13872671"
       d="m 800.33678,168.60001 h 22.47328 v -25.98866 h 13.18265 c 21.4689,0 32.39167,-15.69364 32.39167,-31.51282 0,-15.693633 -10.79722,-31.387267 -32.51721,-31.387267 h -35.53039 z m 22.47328,-45.95096 v -21.97109 h 13.05711 c 13.5593,-0.12555 13.5593,22.09663 0,21.97109 z" />
    <path
       id="path836"
       style="font-style:normal;font-variant:normal;font-weight:900;font-stretch:normal;font-size:125.54907227px;font-family:'Uni Sans';-inkscape-font-specification:'Uni Sans, Heavy';font-variant-ligatures:normal;font-variant-caps:normal;font-variant-numeric:normal;font-feature-settings:normal;text-align:start;writing-mode:lr-tb;text-anchor:start;fill:#ffffff;stroke-width:3.13872671"
       d="m 875.68976,139.34707 c 0,20.33895 18.45572,30.50843 36.91143,30.50843 18.45571,0 36.78588,-10.16948 36.78588,-30.50843 V 108.9642 c 0,-20.338953 -18.45571,-30.508428 -36.91143,-30.508428 -18.45571,0 -36.78588,10.043926 -36.78588,30.508428 z m 22.47329,-30.38287 c 0,-6.52855 7.03075,-10.043929 14.06149,-10.043929 7.28185,0 14.68925,3.138729 14.68925,10.043929 v 30.38287 c 0,6.403 -7.1563,9.66728 -14.3126,9.66728 -7.1563,0 -14.43814,-3.13873 -14.43814,-9.66728 z" />
    <path
       id="path838"
       style="font-style:normal;font-variant:normal;font-weight:900;font-stretch:normal;font-size:125.54907227px;font-family:'Uni Sans';-inkscape-font-specification:'Uni Sans, Heavy';font-variant-ligatures:normal;font-variant-caps:normal;font-variant-numeric:normal;font-feature-settings:normal;text-align:start;writing-mode:lr-tb;text-anchor:start;fill:#ffffff;stroke-width:3.13872671"
       d="m 1033.0577,122.5235 -2.511,18.58126 h -0.3767 l -2.8876,-18.58126 -9.1651,-31.261722 h -17.0746 l -9.91842,31.136172 -2.13433,18.70681 H 988.3622 L 986.10232,122.2724 975.5562,79.711263 h -23.35213 l 25.73756,88.888747 h 20.84115 l 7.03072,-24.73317 3.3898,-20.2134 h 0.3767 l 3.1387,20.33895 7.9096,24.60762 h 20.8412 l 25.612,-88.888747 h -23.2266 z" />
    <path
       id="path840"
       style="font-style:normal;font-variant:normal;font-weight:900;font-stretch:normal;font-size:125.54907227px;font-family:'Uni Sans';-inkscape-font-specification:'Uni Sans, Heavy';font-variant-ligatures:normal;font-variant-caps:normal;font-variant-numeric:normal;font-feature-settings:normal;text-align:start;writing-mode:lr-tb;text-anchor:start;fill:#ffffff;stroke-width:3.13872671"
       d="m 1096.7189,100.80351 h 39.1713 V 79.711263 h -61.8957 v 88.888747 h 61.8957 v -21.2178 h -39.1713 v -13.3082 h 36.0326 v -19.4601 h -36.0326 z" />
    <path
       id="path842"
       style="font-style:normal;font-variant:normal;font-weight:900;font-stretch:normal;font-size:125.54907227px;font-family:'Uni Sans';-inkscape-font-specification:'Uni Sans, Heavy';font-variant-ligatures:normal;font-variant-caps:normal;font-variant-numeric:normal;font-feature-settings:normal;text-align:start;writing-mode:lr-tb;text-anchor:start;fill:#ffffff;stroke-width:3.13872671"
       d="m 1195.1356,168.60001 h 27.9975 l -24.231,-30.50843 c 10.7972,-3.38982 17.4513,-12.68045 17.4513,-29.12738 -0.5022,-20.841149 -14.6892,-29.252937 -33.0194,-29.252937 h -35.5304 v 88.888747 h 22.7244 v -28.24855 h 4.0176 z m -24.6076,-47.5831 v -20.33895 h 13.1827 c 14.187,0 14.187,20.33895 0,20.33895 z" />
    <path
       id="path844"
       style="font-style:normal;font-variant:normal;font-weight:900;font-stretch:normal;font-size:125.54907227px;font-family:'Uni Sans';-inkscape-font-specification:'Uni Sans, Heavy';font-variant-ligatures:normal;font-variant-caps:normal;font-variant-numeric:normal;font-feature-settings:normal;text-align:start;writing-mode:lr-tb;text-anchor:start;fill:#ffffff;stroke-width:3.13872671"
       d="m 1251.6935,100.80351 h 39.1714 V 79.711263 h -61.8957 v 88.888747 h 61.8957 v -21.2178 h -39.1714 v -13.3082 h 36.0326 v -19.4601 h -36.0326 z" />
    <path
       id="path846"
       style="font-style:normal;font-variant:normal;font-weight:900;font-stretch:normal;font-size:125.54907227px;font-family:'Uni Sans';-inkscape-font-specification:'Uni Sans, Heavy';font-variant-ligatures:normal;font-variant-caps:normal;font-variant-numeric:normal;font-feature-settings:normal;text-align:start;writing-mode:lr-tb;text-anchor:start;fill:#ffffff;stroke-width:3.13872671"
       d="m 1302.7783,79.711263 v 88.888747 h 33.2705 c 17.8279,0.12555 34.526,-8.78844 34.526,-29.25294 v -29.88068 c 0,-20.715594 -16.6981,-29.755127 -34.526,-29.755127 z m 22.5988,67.796497 v -46.8298 h 11.425 c 7.5329,0 11.1738,3.64092 11.1738,9.41618 v 27.74634 c 0,5.77526 -3.5153,9.66728 -11.1738,9.66728 z" />
  </g>
</svg>
