<?xml version="1.0" encoding="UTF-8" standalone="no"?>
<svg
   xmlns:dc="http://purl.org/dc/elements/1.1/"
   xmlns:cc="http://creativecommons.org/ns#"
   xmlns:rdf="http://www.w3.org/1999/02/22-rdf-syntax-ns#"
   xmlns:svg="http://www.w3.org/2000/svg"
   xmlns="http://www.w3.org/2000/svg"
   xmlns:sodipodi="http://sodipodi.sourceforge.net/DTD/sodipodi-0.dtd"
   xmlns:inkscape="http://www.inkscape.org/namespaces/inkscape"
   viewBox="0 0 1507.8658 191.90836"
   height="191.90836"
   width="1507.8658"
   id="svg4504"
   version="1.1"
   sodipodi:docname="logo_text.svg"
   inkscape:version="0.92.3 (2405546, 2018-03-11)">
  <sodipodi:namedview
     pagecolor="#ffffff"
     bordercolor="#666666"
     borderopacity="1"
     objecttolerance="10"
     gridtolerance="10"
     guidetolerance="10"
     inkscape:pageopacity="0"
     inkscape:pageshadow="2"
     inkscape:window-width="1920"
     inkscape:window-height="1027"
     id="namedview819"
     showgrid="false"
     fit-margin-top="0"
     fit-margin-left="0"
     fit-margin-right="0"
     fit-margin-bottom="0"
     inkscape:zoom="0.55859375"
     inkscape:cx="747.85368"
     inkscape:cy="-213.75015"
     inkscape:window-x="-8"
     inkscape:window-y="789"
     inkscape:window-maximized="1"
     inkscape:current-layer="flowRoot821" />
  <metadata
     id="metadata4510">
    <rdf:RDF>
      <cc:Work
         rdf:about="">
        <dc:format>image/svg+xml</dc:format>
        <dc:type
           rdf:resource="http://purl.org/dc/dcmitype/StillImage" />
        <dc:title></dc:title>
      </cc:Work>
    </rdf:RDF>
  </metadata>
  <defs
     id="defs4508" />
  <path
     id="path4514"
     d="m 72.311486,190.36064 c -17.335033,-2.96709 -18.584941,-6.23022 -21.949692,-9.01776 l -2.422132,-2.00662 5.250023,0.59406 c 5.021427,0.56816 5.245877,0.48761 5.154802,-1.84998 -0.09434,-2.42064 -0.0041,-2.44143 9.441165,-2.17401 l 9.536384,0.27 v -2.56881 c 0,-4.29527 -3.186936,-11.15435 -7.10973,-15.30192 -2.043446,-2.16053 -7.194846,-5.82087 -11.447558,-8.13409 -7.919852,-4.30792 -16.495369,-11.54787 -16.495369,-13.92634 0,-1.92185 0.456997,-1.76486 8.12741,2.79206 7.001823,4.1597 9.398919,4.9566 9.398919,3.12462 0,-2.20484 -4.955053,-10.34126 -11.948507,-19.62 -8.762399,-11.62573 -10.811733,-15.48916 -13.706535,-25.839773 -2.466399,-8.818822 -2.789621,-14.67066 -0.89219,-16.152854 2.299562,-1.796323 14.453859,-4.249096 24.485311,-4.941208 6.6039,-0.45563 14.027115,-0.144224 22.789588,0.956034 25.985595,3.262873 37.075275,6.455433 58.093985,16.724415 5.07749,2.480684 9.83279,4.510331 10.56734,4.510331 3.80516,0 0.0403,-2.724085 -11.59623,-8.390491 -7.11246,-3.463418 -12.71938,-6.509488 -12.45981,-6.769047 0.25955,-0.259557 1.3311,-0.0121 2.38122,0.549905 1.05011,0.562005 7.70972,2.908909 14.79912,5.215341 7.08942,2.306432 15.10944,5.601147 17.82229,7.321585 2.71286,1.720439 8.38719,4.767472 12.60963,6.771192 4.72,2.23984 7.67716,4.26377 7.67716,5.25438 0,1.23603 -0.66021,1.45214 -2.83514,0.92803 -3.27045,-0.78811 -13.439,-5.56238 -19.05316,-8.945705 -3.60173,-2.170559 -5.85426,-2.224375 -4.54666,-0.108622 0.31707,0.513007 6.39464,4.356047 13.50573,8.540077 7.11108,4.18402 12.92923,8.19311 12.92923,8.90908 0,0.71597 -0.63556,3.0509 -1.41235,5.18873 -0.77679,2.13783 -2.16935,6.48181 -3.09459,9.65327 -3.12288,10.70447 -14.16802,26.87598 -27.02784,39.57221 -9.72074,9.59709 -28.93761,18.26449 -45.59374,20.00089 -10.228066,0.92713 -22.731885,0.21035 -30.978074,-1.12898 z m -7.360975,-25.5494 c 0,-0.56703 0.695898,-1.03096 1.54644,-1.03096 0.850543,0 1.546442,0.46393 1.546442,1.03096 0,0.56703 -0.695899,1.03096 -1.546442,1.03096 -0.850542,0 -1.54644,-0.46393 -1.54644,-1.03096 z M 20.038873,131.7322 c -2.739531,-2.8781 -9.885493,-7.12842 -11.9848329,-7.12842 -0.460524,0 -0.837316,1.15982 -0.837316,2.5774 0,6.94418 -4.1405326,-0.74889 -6.0958104,-11.32596 C 0.5044108,112.52025 0,109.40039 0,108.9222 c 0,-0.47819 5.2428061,4.44682 11.650681,10.94446 8.534081,8.65364 12.037181,11.57502 13.095522,10.92093 1.898436,-1.1733 3.089729,-0.35408 3.089729,2.12472 0,3.13838 -4.306972,2.48651 -7.797059,-1.18011 z M 3.1086688,84.62094 c -0.019372,-5.416353 2.4108463,-11.565192 4.5709283,-11.565192 2.16043,0 2.001288,1.949523 -0.462873,5.670283 -1.126585,1.701084 -2.058495,4.020746 -2.0709155,5.154801 -0.012426,1.134057 -0.4723037,2.757821 -1.0219665,3.608363 C 3.3925952,88.620718 3.1202196,87.851152 3.1086688,84.62094 Z M 175.26327,83.755162 C 170.38182,78.687529 165.31366,74.896833 161.45484,73.427247 128.66348,60.939065 123.75609,60.046396 89.434296,60.326528 c -20.589929,0.168053 -29.265245,1.714957 -37.886272,6.755539 -2.116152,1.237282 -6.264273,2.326853 -10.030709,2.634728 -5.629166,0.460137 -6.508837,0.284929 -7.122644,-1.418659 -0.385165,-1.068997 -3.355076,-4.513401 -6.599806,-7.654231 -5.0622,-4.900104 -6.086514,-6.54623 -7.217119,-11.598304 C 17.932963,37.22746 22.291119,27.89496 34.859035,18.463823 53.269998,4.6479896 71.872874,-1.0071761 95.117569,0.14558351 113.29967,1.047278 127.48295,5.7497064 143.04114,16.034535 c 12.20347,8.067168 26.5656,24.751113 31.51265,36.607047 3.2217,7.721024 8.04143,26.715513 7.73027,30.464853 -0.42535,5.125043 -2.52229,5.318801 -7.02079,0.648727 z m -4.12383,-23.966248 c 0,-3.581057 -8.89667,-11.121215 -17.33617,-14.69286 -10.92806,-4.624813 -19.57361,-5.170522 -26.56168,-1.676577 -2.79003,1.394979 -6.34859,2.843499 -7.90792,3.218934 -4.19991,1.011201 -3.43643,2.705246 1.21923,2.705246 3.18635,0 4.19847,-0.454019 4.72744,-2.12067 0.52511,-1.654487 1.39025,-2.051095 3.93557,-1.80418 2.85207,0.276673 3.23809,0.673164 3.06842,3.15163 -0.19316,2.8215 -0.16191,2.835141 6.4947,2.835141 3.87445,0 7.9243,0.63891 9.62521,1.518485 1.61504,0.835168 5.11254,2.006161 7.77222,2.602206 2.65966,0.596047 6.52619,2.23239 8.59226,3.636317 4.48585,3.04822 6.37072,3.233527 6.37072,0.626328 z M 108.04952,28.070441 c 0.57747,-5.939441 -6.8741,-9.231813 -11.912457,-5.263364 -3.814552,3.004518 2.32218,9.335915 8.505427,8.775229 2.63912,-0.239311 3.13897,-0.754534 3.40703,-3.511865 z"
     style="fill:#ba0069;fill-opacity:1;stroke-width:1.03096044"
     inkscape:connector-curvature="0" />
  <g
     aria-label="Manzo's Marbles"
     transform="translate(185.16589,-4.70802)"
     style="font-style:normal;font-weight:normal;font-size:40px;line-height:1.25;font-family:sans-serif;letter-spacing:0px;word-spacing:0px;fill:#ba0069;fill-opacity:1;stroke:none"
     id="flowRoot821">
    <path
       d="m 94.886938,136.4702 h 1.343999 q 5.184003,-23.616 10.368003,-47.039997 5.376,-23.616 10.56,-47.232 h 27.456 V 172.7582 h -18.816 V 87.894203 h -1.152 q -4.608,21.311997 -9.6,42.623997 -4.992,21.12 -9.408,42.24 L 84.710937,172.9502 66.854938,88.086203 H 65.510937 V 172.7582 H 46.502938 V 42.198203 h 27.456 z"
       style="font-style:normal;font-variant:normal;font-weight:normal;font-stretch:normal;font-size:192px;font-family:'Do Hyeon';-inkscape-font-specification:'Do Hyeon';fill:#ba0069;fill-opacity:1"
       id="path835"
       inkscape:connector-curvature="0" />
    <path
       d="m 158.72094,105.9422 q 0.576,-6.143997 2.688,-11.711997 2.304,-5.568 6.528,-9.792 4.224,-4.224 10.56,-6.72 6.336,-2.688 14.592,-2.688 h 11.52 q 8.64,0 14.976,2.88 6.528,2.88 10.752,7.68 4.224,4.608 6.336,10.752 2.112,5.951997 2.112,12.095997 v 64.32 h -54.528 q -6.336,0 -11.328,-2.304 -4.992,-2.496 -8.448,-6.336 -3.264,-4.032 -4.992,-9.408 -1.536,-5.376 -1.536,-11.52 0,-5.952 1.728,-11.136 1.728,-5.184 4.992,-8.832 3.264,-3.84 8.064,-5.952 4.992,-2.304 11.136,-2.304 h 32.832 v -1.92 q 0,-3.456 -0.576,-6.336 -0.576,-3.072 -2.112,-5.184 -1.536,-2.111997 -4.608,-3.263997 -3.072,-1.344 -8.256,-1.344 h -4.8 q -7.68,0 -10.944,2.304 -3.264,2.111997 -4.416,6.719997 z m 19.776,37.248 q 0,4.992 1.92,7.488 2.112,2.304 4.608,2.304 h 31.68 v -19.584 h -31.68 q -2.496,0 -4.608,2.496 -1.92,2.496 -1.92,7.296 z"
       style="font-style:normal;font-variant:normal;font-weight:normal;font-stretch:normal;font-size:192px;font-family:'Do Hyeon';-inkscape-font-specification:'Do Hyeon';fill:#ba0069;fill-opacity:1"
       id="path837"
       inkscape:connector-curvature="0" />
    <path
       d="m 294.15294,96.918203 q -4.992,0 -8.256,1.344 -3.072,1.152 -4.8,3.263997 -1.728,2.112 -2.496,5.184 -0.576,2.88 -0.576,6.336 v 59.712 h -22.464 V 75.030203 h 22.464 v 2.496 q 6.72,-2.496 14.4,-2.496 h 9.984 q 8.448,0 14.976,2.88 6.528,2.88 10.752,7.68 4.416,4.608 6.528,10.752 2.304,5.951997 2.304,12.095997 v 64.32 h -22.464 v -59.712 q 0,-3.456 -0.576,-6.336 -0.576,-3.072 -2.304,-5.184 -1.536,-2.111997 -4.608,-3.263997 -3.072,-1.344 -8.256,-1.344 z"
       style="font-style:normal;font-variant:normal;font-weight:normal;font-stretch:normal;font-size:192px;font-family:'Do Hyeon';-inkscape-font-specification:'Do Hyeon';fill:#ba0069;fill-opacity:1"
       id="path839"
       inkscape:connector-curvature="0" />
    <path
       d="m 419.50194,95.958203 -44.736,54.719997 h 44.736 v 22.08 h -71.424 v -20.928 l 44.544,-54.719997 h -44.544 v -22.08 h 71.424 z"
       style="font-style:normal;font-variant:normal;font-weight:normal;font-stretch:normal;font-size:192px;font-family:'Do Hyeon';-inkscape-font-specification:'Do Hyeon';fill:#ba0069;fill-opacity:1"
       id="path841"
       inkscape:connector-curvature="0" />
    <path
       d="m 473.80494,75.030203 q 8.448,0 14.976,2.688 6.72,2.496 11.328,7.104 4.8,4.608 7.296,11.136 2.496,6.527997 2.496,14.783997 v 26.304 q 0,8.064 -2.496,14.784 -2.496,6.528 -7.296,11.328 -4.608,4.608 -11.328,7.104 -6.528,2.496 -14.976,2.496 h -7.872 q -8.256,0 -14.976,-2.496 -6.72,-2.496 -11.52,-7.104 -4.608,-4.8 -7.104,-11.328 -2.304,-6.72 -2.304,-14.784 v -26.304 q 0,-8.256 2.304,-14.783997 2.496,-6.528 7.104,-11.136 4.8,-4.608 11.52,-7.104 6.72,-2.688 14.976,-2.688 z m -7.872,22.08 q -5.952,0 -10.176,4.031997 -4.032,3.84 -4.032,10.176 v 24.96 q 0,6.336 4.032,10.368 4.224,4.032 10.176,4.032 h 7.872 q 6.144,0 9.984,-4.032 4.032,-4.032 4.032,-10.368 v -24.96 q 0,-6.336 -4.032,-10.176 -3.84,-4.031997 -9.984,-4.031997 z"
       style="font-style:normal;font-variant:normal;font-weight:normal;font-stretch:normal;font-size:192px;font-family:'Do Hyeon';-inkscape-font-specification:'Do Hyeon';fill:#ba0069;fill-opacity:1"
       id="path843"
       inkscape:connector-curvature="0" />
    <path
       d="m 522.48894,61.014203 3.072,-32.832 h 20.544 l -5.184,32.832 z"
       style="font-style:normal;font-variant:normal;font-weight:normal;font-stretch:normal;font-size:192px;font-family:'Do Hyeon';-inkscape-font-specification:'Do Hyeon';fill:#ba0069;fill-opacity:1"
       id="path845"
       inkscape:connector-curvature="0" />
    <path
       d="m 627.60894,94.038203 h -38.208 q -2.496,0 -4.224,0.96 -1.536,0.768 -2.688,2.304 -1.152,1.536 -1.728,3.455997 -0.576,1.728 -0.576,3.456 0,3.648 2.304,6.72 2.496,2.88 5.952,2.88 h 21.504 q 6.72,0 11.712,2.304 5.184,2.304 8.448,6.336 3.456,4.032 4.992,9.6 1.728,5.568 1.728,11.904 v 0.576 q 0,6.336 -2.112,11.52 -1.92,5.184 -5.568,8.832 -3.648,3.648 -8.64,5.76 -4.992,2.112 -10.56,2.112 h -46.464 v -19.008 h 39.936 q 4.416,0 8.064,-2.496 3.84,-2.496 4.032,-7.488 v 0.192 q 0,-2.88 -1.152,-4.8 -0.96,-1.92 -2.688,-3.072 -1.728,-1.344 -3.84,-1.92 -2.112,-0.576 -4.416,-0.576 h -17.28 q -8.448,0 -14.016,-2.688 -5.376,-2.688 -8.64,-6.912 -3.072,-4.224 -4.224,-9.6 -1.152,-5.376 -1.152,-10.944 0,-5.759997 1.728,-11.135997 1.728,-5.376 4.992,-9.408 3.456,-4.224 8.448,-6.528 4.992,-2.304 11.328,-2.304 h 43.008 z"
       style="font-style:normal;font-variant:normal;font-weight:normal;font-stretch:normal;font-size:192px;font-family:'Do Hyeon';-inkscape-font-specification:'Do Hyeon';fill:#ba0069;fill-opacity:1"
       id="path847"
       inkscape:connector-curvature="0" />
    <path
       d="m 772.88694,136.4702 h 1.344 q 5.184,-23.616 10.368,-47.039997 5.376,-23.616 10.56,-47.232 h 27.456 V 172.7582 h -18.816 V 87.894203 h -1.152 q -4.608,21.311997 -9.6,42.623997 -4.992,21.12 -9.408,42.24 l -20.928,0.192 -17.856,-84.863997 h -1.344 V 172.7582 h -19.008 V 42.198203 h 27.456 z"
       style="font-style:normal;font-variant:normal;font-weight:normal;font-stretch:normal;font-size:192px;font-family:'Do Hyeon';-inkscape-font-specification:'Do Hyeon';fill:#ba0069;fill-opacity:1"
       id="path849"
       inkscape:connector-curvature="0" />
    <path
       d="m 836.72094,105.9422 q 0.576,-6.143997 2.688,-11.711997 2.304,-5.568 6.528,-9.792 4.224,-4.224 10.56,-6.72 6.336,-2.688 14.592,-2.688 h 11.52 q 8.64,0 14.976,2.88 6.528,2.88 10.752,7.68 4.224,4.608 6.336,10.752 2.112,5.951997 2.112,12.095997 v 64.32 h -54.528 q -6.336,0 -11.328,-2.304 -4.992,-2.496 -8.448,-6.336 -3.264,-4.032 -4.992,-9.408 -1.536,-5.376 -1.536,-11.52 0,-5.952 1.728,-11.136 1.728,-5.184 4.992,-8.832 3.264,-3.84 8.064,-5.952 4.992,-2.304 11.136,-2.304 h 32.832 v -1.92 q 0,-3.456 -0.576,-6.336 -0.576,-3.072 -2.112,-5.184 -1.536,-2.111997 -4.608,-3.263997 -3.072,-1.344 -8.256,-1.344 h -4.8 q -7.68,0 -10.944,2.304 -3.264,2.111997 -4.416,6.719997 z m 19.776,37.248 q 0,4.992 1.92,7.488 2.112,2.304 4.608,2.304 h 31.68 v -19.584 h -31.68 q -2.496,0 -4.608,2.496 -1.92,2.496 -1.92,7.296 z"
       style="font-style:normal;font-variant:normal;font-weight:normal;font-stretch:normal;font-size:192px;font-family:'Do Hyeon';-inkscape-font-specification:'Do Hyeon';fill:#ba0069;fill-opacity:1"
       id="path851"
       inkscape:connector-curvature="0" />
    <path
       d="m 956.21694,94.998203 q 2.688,-4.416 7.104,-7.68 4.608,-3.456 9.984,-5.76 5.568,-2.304 11.712,-3.456 6.144,-1.152 12.288,-1.152 h 2.496 V 100.7582 h -2.496 q -6.912,0 -14.208,2.88 -7.296,2.688 -13.44,7.296 -5.952,4.416 -9.792,9.984 -3.648,5.568 -3.648,11.136 v 40.704 h -23.808 V 74.262203 h 23.808 z"
       style="font-style:normal;font-variant:normal;font-weight:normal;font-stretch:normal;font-size:192px;font-family:'Do Hyeon';-inkscape-font-specification:'Do Hyeon';fill:#ba0069;fill-opacity:1"
       id="path853"
       inkscape:connector-curvature="0" />
    <path
       d="m 1056.0149,75.030203 q 8.448,0 14.976,2.688 6.72,2.496 11.328,7.104 4.8,4.608 7.296,11.136 2.496,6.527997 2.496,14.783997 v 26.304 q 0,8.064 -2.496,14.784 -2.496,6.528 -7.296,11.328 -4.608,4.608 -11.328,7.104 -6.528,2.496 -14.976,2.496 h -7.68 q -8.448,0 -15.168,-2.496 -6.528,-2.496 -11.328,-7.104 -4.608,-4.8 -7.104,-11.328 -2.496,-6.72 -2.496,-14.784 v -26.304 -1.536 -67.199997 h 22.656 v 35.52 q 7.104,-2.496 14.976,-2.496 z m -7.68,22.08 q -6.144,0 -9.792,3.839997 -3.456,3.84 -3.648,9.792 v 25.536 q 0,6.336 3.648,10.368 3.648,4.032 9.792,4.032 h 7.68 q 6.144,0 9.984,-4.032 3.84,-4.032 3.84,-10.368 v -24.96 q 0,-6.336 -3.84,-10.176 -3.84,-4.031997 -9.984,-4.031997 z"
       style="font-style:normal;font-variant:normal;font-weight:normal;font-stretch:normal;font-size:192px;font-family:'Do Hyeon';-inkscape-font-specification:'Do Hyeon';fill:#ba0069;fill-opacity:1"
       id="path855"
       inkscape:connector-curvature="0" />
    <path
       d="m 1108.1099,42.006203 h 22.656 V 172.7582 h -22.656 z"
       style="font-style:normal;font-variant:normal;font-weight:normal;font-stretch:normal;font-size:192px;font-family:'Do Hyeon';-inkscape-font-specification:'Do Hyeon';fill:#ba0069;fill-opacity:1"
       id="path857"
       inkscape:connector-curvature="0" />
    <path
       d="m 1146.8549,109.7822 q 0,-7.104 2.688,-13.247997 2.688,-6.336 7.104,-11.136 4.416,-4.8 10.176,-7.488 5.76,-2.88 11.52,-2.88 h 21.888 q 7.488,0 13.248,3.264 5.952,3.072 9.792,8.064 4.032,4.8 6.144,10.944 2.304,5.951997 2.304,11.711997 v 24.768 h -62.208 v 5.184 q 0,6.912 3.84,9.792 3.84,2.88 10.176,2.88 h 44.736 v 21.504 h -49.728 q -6.528,0 -12.288,-2.496 -5.76,-2.688 -10.176,-7.104 -4.224,-4.416 -6.72,-10.56 -2.496,-6.144 -2.496,-13.44 z m 22.848,5.76 h 39.744 v -0.96 q 0,-7.488 -3.84,-12.288 -3.84,-4.991997 -10.368,-4.991997 h -11.904 q -3.072,0 -5.568,1.536 -2.496,1.343997 -4.224,3.647997 -1.728,2.304 -2.88,5.568 -0.96,3.072 -0.96,6.528 z"
       style="font-style:normal;font-variant:normal;font-weight:normal;font-stretch:normal;font-size:192px;font-family:'Do Hyeon';-inkscape-font-specification:'Do Hyeon';fill:#ba0069;fill-opacity:1"
       id="path859"
       inkscape:connector-curvature="0" />
    <path
       d="m 1313.4839,94.038203 h -38.208 q -2.496,0 -4.224,0.96 -1.536,0.768 -2.688,2.304 -1.152,1.536 -1.728,3.455997 -0.576,1.728 -0.576,3.456 0,3.648 2.304,6.72 2.496,2.88 5.952,2.88 h 21.504 q 6.72,0 11.712,2.304 5.184,2.304 8.448,6.336 3.456,4.032 4.992,9.6 1.728,5.568 1.728,11.904 v 0.576 q 0,6.336 -2.112,11.52 -1.92,5.184 -5.568,8.832 -3.648,3.648 -8.64,5.76 -4.992,2.112 -10.56,2.112 h -46.464 v -19.008 h 39.936 q 4.416,0 8.064,-2.496 3.84,-2.496 4.032,-7.488 v 0.192 q 0,-2.88 -1.152,-4.8 -0.96,-1.92 -2.688,-3.072 -1.728,-1.344 -3.84,-1.92 -2.112,-0.576 -4.416,-0.576 h -17.28 q -8.448,0 -14.016,-2.688 -5.376,-2.688 -8.64,-6.912 -3.072,-4.224 -4.224,-9.6 -1.152,-5.376 -1.152,-10.944 0,-5.759997 1.728,-11.135997 1.728,-5.376 4.992,-9.408 3.456,-4.224 8.448,-6.528 4.992,-2.304 11.328,-2.304 h 43.008 z"
       style="font-style:normal;font-variant:normal;font-weight:normal;font-stretch:normal;font-size:192px;font-family:'Do Hyeon';-inkscape-font-specification:'Do Hyeon';fill:#ba0069;fill-opacity:1"
       id="path861"
       inkscape:connector-curvature="0" />
  </g>
</svg>
