<?xml version="1.0" encoding="UTF-8" standalone="no"?>
<svg
   xmlns:dc="http://purl.org/dc/elements/1.1/"
   xmlns:cc="http://creativecommons.org/ns#"
   xmlns:rdf="http://www.w3.org/1999/02/22-rdf-syntax-ns#"
   xmlns:svg="http://www.w3.org/2000/svg"
   xmlns="http://www.w3.org/2000/svg"
   viewBox="0 0 192 192"
   height="192"
   width="192"
   id="svg4504"
   version="1.1">
  <metadata
     id="metadata4510">
    <rdf:RDF>
      <cc:Work
         rdf:about="">
        <dc:format>image/svg+xml</dc:format>
        <dc:type
           rdf:resource="http://purl.org/dc/dcmitype/StillImage" />
        <dc:title></dc:title>
      </cc:Work>
    </rdf:RDF>
  </metadata>
  <defs
     id="defs4508" />
  <path
     id="path4514"
     d="M 77.162283,190.40646 C 59.82725,187.43937 58.577342,184.17624 55.212591,181.3887 l -2.422132,-2.00662 5.250023,0.59406 c 5.021427,0.56816 5.245877,0.48761 5.154802,-1.84998 -0.09434,-2.42064 -0.0041,-2.44143 9.441165,-2.17401 l 9.536384,0.27 v -2.56881 c 0,-4.29527 -3.186936,-11.15435 -7.10973,-15.30192 -2.043446,-2.16053 -7.194846,-5.82087 -11.447558,-8.13409 -7.919852,-4.30792 -16.495369,-11.54787 -16.495369,-13.92634 0,-1.92185 0.456997,-1.76486 8.12741,2.79206 7.001823,4.1597 9.398919,4.9566 9.398919,3.12462 0,-2.20484 -4.955053,-10.34126 -11.948507,-19.62 -8.762399,-11.62573 -10.811733,-15.48916 -13.706535,-25.839776 -2.466399,-8.818822 -2.789621,-14.67066 -0.89219,-16.152854 2.299562,-1.796323 14.453859,-4.249096 24.485311,-4.941208 6.6039,-0.45563 14.027115,-0.144224 22.789588,0.956034 25.985598,3.262873 37.075278,6.455433 58.093988,16.724415 5.07749,2.480684 9.83279,4.510331 10.56734,4.510331 3.80516,0 0.0403,-2.724085 -11.59623,-8.390491 -7.11246,-3.463418 -12.71938,-6.509488 -12.45981,-6.769047 0.25955,-0.259557 1.3311,-0.0121 2.38122,0.549905 1.05011,0.562005 7.70972,2.908909 14.79912,5.215341 7.08942,2.306432 15.10944,5.601147 17.82229,7.321585 2.71286,1.720439 8.38719,4.767475 12.60963,6.771195 4.72,2.23984 7.67716,4.26377 7.67716,5.25438 0,1.23603 -0.66021,1.45214 -2.83514,0.92803 -3.27045,-0.78811 -13.439,-5.56238 -19.05316,-8.945708 -3.60173,-2.170559 -5.85426,-2.224375 -4.54666,-0.108622 0.31707,0.51301 6.39464,4.35605 13.50573,8.54008 7.11108,4.18402 12.92923,8.19311 12.92923,8.90908 0,0.71597 -0.63556,3.0509 -1.41235,5.18873 -0.77679,2.13783 -2.16935,6.48181 -3.09459,9.65327 -3.12288,10.70447 -14.16802,26.87598 -27.02784,39.57221 -9.72074,9.59709 -28.93761,18.26449 -45.59374,20.00089 -10.228069,0.92713 -22.731888,0.21035 -30.978077,-1.12898 z m -7.360975,-25.5494 c 0,-0.56703 0.695898,-1.03096 1.54644,-1.03096 0.850543,0 1.546442,0.46393 1.546442,1.03096 0,0.56703 -0.695899,1.03096 -1.546442,1.03096 -0.850542,0 -1.54644,-0.46393 -1.54644,-1.03096 z M 24.88967,131.77802 c -2.739531,-2.8781 -9.885493,-7.12842 -11.984833,-7.12842 -0.460524,0 -0.837316,1.15982 -0.837316,2.5774 0,6.94418 -4.1405326,-0.74889 -6.0958104,-11.32596 -0.6165029,-3.33497 -1.1209137,-6.45483 -1.1209137,-6.93302 0,-0.47819 5.2428061,4.44682 11.6506811,10.94446 8.534081,8.65364 12.037181,11.57502 13.095522,10.92093 1.898436,-1.1733 3.089729,-0.35408 3.089729,2.12472 0,3.13838 -4.306972,2.48651 -7.797059,-1.18011 z M 7.9594657,84.666757 c -0.019372,-5.416353 2.4108463,-11.565192 4.5709283,-11.565192 2.16043,0 2.001288,1.949523 -0.462873,5.670283 -1.126585,1.701084 -2.058495,4.020746 -2.0709155,5.154801 C 9.9841792,85.060706 9.5243018,86.68447 8.974639,87.535012 8.2433921,88.666535 7.9710165,87.896969 7.9594657,84.666757 Z M 180.11407,83.800979 C 175.23262,78.733346 170.16446,74.94265 166.30564,73.473064 133.51428,60.984882 128.60689,60.092213 94.285093,60.372345 c -20.589929,0.168053 -29.265245,1.714957 -37.886272,6.755539 -2.116152,1.237282 -6.264273,2.326853 -10.030709,2.634728 -5.629166,0.460137 -6.508837,0.284929 -7.122644,-1.418659 -0.385165,-1.068997 -3.355076,-4.513401 -6.599806,-7.654231 -5.0622,-4.900104 -6.086514,-6.54623 -7.217119,-11.598304 C 22.78376,37.273277 27.141916,27.940777 39.709832,18.50964 58.120795,4.6938064 76.723671,-0.96135924 99.968366,0.19140034 118.15047,1.0930948 132.33375,5.7955232 147.89194,16.080352 c 12.20347,8.067168 26.5656,24.751113 31.51265,36.607047 3.2217,7.721024 8.04143,26.715513 7.73027,30.464853 -0.42535,5.125043 -2.52229,5.318801 -7.02079,0.648727 z m -4.12383,-23.966248 c 0,-3.581057 -8.89667,-11.121215 -17.33617,-14.69286 -10.92806,-4.624813 -19.57361,-5.170522 -26.56168,-1.676577 -2.79003,1.394979 -6.34859,2.843499 -7.90792,3.218934 -4.19991,1.011201 -3.43643,2.705246 1.21923,2.705246 3.18635,0 4.19847,-0.454019 4.72744,-2.12067 0.52511,-1.654487 1.39025,-2.051095 3.93557,-1.80418 2.85207,0.276673 3.23809,0.673164 3.06842,3.15163 -0.19316,2.8215 -0.16191,2.835141 6.4947,2.835141 3.87445,0 7.9243,0.63891 9.62521,1.518485 1.61504,0.835168 5.11254,2.006161 7.77222,2.602206 2.65966,0.596047 6.52619,2.23239 8.59226,3.636317 4.48585,3.04822 6.37072,3.233527 6.37072,0.626328 z M 112.90032,28.116258 c 0.57747,-5.939441 -6.8741,-9.231813 -11.91246,-5.263364 -3.814552,3.004518 2.32218,9.335915 8.50543,8.775229 2.63912,-0.239311 3.13897,-0.754534 3.40703,-3.511865 z"
     style="fill:#ba0069;fill-opacity:1;stroke-width:1.03096044" />
</svg>
