<?xml version="1.0" encoding="UTF-8" standalone="no"?>
<svg xmlns:dc="http://purl.org/dc/elements/1.1/" xmlns:cc="http://creativecommons.org/ns#" xmlns:rdf="http://www.w3.org/1999/02/22-rdf-syntax-ns#" xmlns:svg="http://www.w3.org/2000/svg" xmlns="http://www.w3.org/2000/svg" width="264.58331mm" height="188.86072mm" viewBox="0 0 264.58331 188.86072" version="1.1" id="svg8">
  <defs id="defs2"/>
  <metadata id="metadata5">
    <rdf:RDF>
      <cc:Work rdf:about="">
        <dc:format>image/svg+xml</dc:format>
        <dc:type rdf:resource="http://purl.org/dc/dcmitype/StillImage"/>
        <dc:title/>
      </cc:Work>
    </rdf:RDF>
  </metadata>
  <g style="fill:#eeeeee;fill-opacity:1" id="layer1" transform="translate(56.696428,-33.992164)">
    <path id="path8" d="m 39.078952,33.992608 c -3.50709,0.0141 -32.5202296,0.83758 -63.12758,23.58054 0,0 -32.6478,58.721172 -32.6478,131.045192 0,0 19.04425,32.64749 69.1496,34.23454 0,0 8.38864,-9.97577 15.19027,-18.59117 -28.7935696,-8.61541 -39.67613,-26.52568 -39.67613,-26.52568 0,0 2.2676904,1.58677 6.3486804,3.85399 0.22671,0 0.45276,0.22637 0.9062,0.4531 0.68016,0.45343 1.36054,0.68019 2.0407,1.13363 5.66803,3.17409 11.33587,5.66835 16.5504596,7.70885 9.29556,3.85426 20.40523,7.25474 33.32833,9.74868 17.00408,3.1741 36.95517,4.30753 58.720388,0.22655 10.65589,-2.04049 21.53918,-4.98754 32.87524,-9.74868 7.93523,-2.94738 16.77703,-7.25465 26.07258,-13.37612 0,0 -11.33585,18.36443 -41.03631,26.75311 6.80164,8.38867 14.96373,18.13718 14.96373,18.13718 50.10534,-1.58703 69.14959,-34.23471 69.14959,-34.00798 0,-72.32402 -32.6478,-131.045192 -32.6478,-131.045192 -32.4211,-24.25915 -63.48234,-23.57878 -63.48234,-23.57878 l -3.17345,3.62743 c 38.54258,11.56278 56.45313,28.56727 56.45313,28.56727 -23.579,-12.69637 -46.70403,-19.04501 -68.242518,-21.53894 -16.32392,-1.81377 -31.96828,-1.35979 -45.79826,0.45397 -1.36032,0 -2.49365,0.22639 -3.85398,0.4531 -7.93523,0.90689 -27.20636,3.62732 -51.4655196,14.2832 -8.3886704,3.62754 -13.3769904,6.34867 -13.3769904,6.34867 0,0 18.59113038,-17.91157 59.40092,-29.47434 l -2.26726,-2.72036 c 0,0 -0.12007,-0.003 -0.35388,-0.002 z m -5.76736,83.661982 c 12.92309,0 23.35238,11.10898 23.12567,24.93896 0,13.82998 -10.20258,24.93982 -23.12567,24.93982 -12.69638,0 -23.12568,-11.10984 -23.12568,-24.93982 0,-13.82998 10.20258,-24.93896 23.12568,-24.93896 z m 82.753138,0 c 12.69638,0 23.12567,11.10898 23.12567,24.93896 0,13.82998 -10.20256,24.93982 -23.12567,24.93982 -12.69638,0 -23.125678,-11.10984 -23.125678,-24.93982 0,-13.82998 10.202578,-24.93896 23.125678,-24.93896 z" style="fill:#eeeeee;stroke-width:0.26458332;fill-opacity:1"/>
  </g>
</svg>