{
    "asset" : {
        "generator" : "Khronos Blender glTF 2.0 I/O",
        "version" : "2.0"
    },
    "scene" : 0,
    "scenes" : [
        {
            "name" : "Scene",
            "nodes" : [
                0
            ]
        }
    ],
    "nodes" : [
        {
            "mesh" : 0,
            "name" : "Terrain",
            "rotation" : [
                1,
                0,
                0,
                -1.3435885648505064e-07
            ],
            "translation" : [
                0,
                -60,
                0
            ]
        }
    ],
    "meshes" : [
        {
            "name" : "Plane.002",
            "primitives" : [
                {
                    "attributes" : {
                        "POSITION" : 0,
                        "NORMAL" : 1,
                        "COLOR_0" : 2
                    },
                    "indices" : 3
                }
            ]
        }
    ],
    "accessors" : [
        {
            "bufferView" : 0,
            "componentType" : 5126,
            "count" : 12810,
            "max" : [
                58.227752685546875,
                -58.58362579345703,
                50.0245246887207
            ],
            "min" : [
                -51.8980827331543,
                -119.71712493896484,
                -53.00251388549805
            ],
            "type" : "VEC3"
        },
        {
            "bufferView" : 1,
            "componentType" : 5126,
            "count" : 12810,
            "type" : "VEC3"
        },
        {
            "bufferView" : 2,
            "componentType" : 5126,
            "count" : 12810,
            "type" : "VEC4"
        },
        {
            "bufferView" : 3,
            "componentType" : 5123,
            "count" : 55023,
            "type" : "SCALAR"
        }
    ],
    "bufferViews" : [
        {
            "buffer" : 0,
            "byteLength" : 153720,
            "byteOffset" : 0
        },
        {
            "buffer" : 0,
            "byteLength" : 153720,
            "byteOffset" : 153720
        },
        {
            "buffer" : 0,
            "byteLength" : 204960,
            "byteOffset" : 307440
        },
        {
            "buffer" : 0,
            "byteLength" : 110046,
            "byteOffset" : 512400
        }
    ],
    "buffers" : [
        {
            "byteLength" : 622448,
            "uri" : "data:application/octet-stream;base64,"
        }
    ]
}
