{
    "asset" : {
        "generator" : "Khronos Blender glTF 2.0 I/O",
        "version" : "2.0"
    },
    "scene" : 0,
    "scenes" : [
        {
            "name" : "Scene",
            "nodes" : [
                0
            ]
        }
    ],
    "nodes" : [
        {
            "mesh" : 0,
            "name" : "Terrain",
            "rotation" : [
                1,
                0,
                0,
                -1.3435885648505064e-07
            ],
            "translation" : [
                0,
                -60,
                0
            ]
        }
    ],
    "meshes" : [
        {
            "name" : "Plane.002",
            "primitives" : [
                {
                    "attributes" : {
                        "POSITION" : 0,
                        "NORMAL" : 1,
                        "TEXCOORD_0" : 2,
                        "COLOR_0" : 3
                    },
                    "indices" : 4
                }
            ]
        }
    ],
    "accessors" : [
        {
            "bufferView" : 0,
            "componentType" : 5126,
            "count" : 41077,
            "max" : [
                83.59375,
                -47.106536865234375,
                70.46112060546875
            ],
            "min" : [
                -68.36378479003906,
                -119.71712493896484,
                -76.17538452148438
            ],
            "type" : "VEC3"
        },
        {
            "bufferView" : 1,
            "componentType" : 5126,
            "count" : 41077,
            "type" : "VEC3"
        },
        {
            "bufferView" : 2,
            "componentType" : 5126,
            "count" : 41077,
            "type" : "VEC2"
        },
        {
            "bufferView" : 3,
            "componentType" : 5126,
            "count" : 41077,
            "type" : "VEC4"
        },
        {
            "bufferView" : 4,
            "componentType" : 5123,
            "count" : 159336,
            "type" : "SCALAR"
        }
    ],
    "bufferViews" : [
        {
            "buffer" : 0,
            "byteLength" : 492924,
            "byteOffset" : 0
        },
        {
            "buffer" : 0,
            "byteLength" : 492924,
            "byteOffset" : 492924
        },
        {
            "buffer" : 0,
            "byteLength" : 328616,
            "byteOffset" : 985848
        },
        {
            "buffer" : 0,
            "byteLength" : 657232,
            "byteOffset" : 1314464
        },
        {
            "buffer" : 0,
            "byteLength" : 318672,
            "byteOffset" : 1971696
        }
    ],
    "buffers" : [
        {
            "byteLength" : 2290368,
            "uri" : "data:application/octet-stream;base64,"
        }
    ]
}
