{
    "asset" : {
        "generator" : "Khronos Blender glTF 2.0 I/O",
        "version" : "2.0"
    },
    "scene" : 0,
    "scenes" : [
        {
            "name" : "Scene",
            "nodes" : [
                0
            ]
        }
    ],
    "nodes" : [
        {
            "mesh" : 0,
            "name" : "Terrain",
            "rotation" : [
                0.7071068286895752,
                0,
                0,
                0.7071067094802856
            ]
        }
    ],
    "meshes" : [
        {
            "name" : "Plane.002",
            "primitives" : [
                {
                    "attributes" : {
                        "POSITION" : 0,
                        "NORMAL" : 1,
                        "TEXCOORD_0" : 2,
                        "COLOR_0" : 3
                    },
                    "indices" : 4
                }
            ]
        }
    ],
    "accessors" : [
        {
            "bufferView" : 0,
            "componentType" : 5126,
            "count" : 41090,
            "max" : [
                83.59375,
                76.17538452148438,
                -47.106536865234375
            ],
            "min" : [
                -68.36378479003906,
                -70.46112060546875,
                -119.71712493896484
            ],
            "type" : "VEC3"
        },
        {
            "bufferView" : 1,
            "componentType" : 5126,
            "count" : 41090,
            "type" : "VEC3"
        },
        {
            "bufferView" : 2,
            "componentType" : 5126,
            "count" : 41090,
            "type" : "VEC2"
        },
        {
            "bufferView" : 3,
            "componentType" : 5126,
            "count" : 41090,
            "type" : "VEC4"
        },
        {
            "bufferView" : 4,
            "componentType" : 5123,
            "count" : 159348,
            "type" : "SCALAR"
        }
    ],
    "bufferViews" : [
        {
            "buffer" : 0,
            "byteLength" : 493080,
            "byteOffset" : 0
        },
        {
            "buffer" : 0,
            "byteLength" : 493080,
            "byteOffset" : 493080
        },
        {
            "buffer" : 0,
            "byteLength" : 328720,
            "byteOffset" : 986160
        },
        {
            "buffer" : 0,
            "byteLength" : 657440,
            "byteOffset" : 1314880
        },
        {
            "buffer" : 0,
            "byteLength" : 318696,
            "byteOffset" : 1972320
        }
    ],
    "buffers" : [
        {
            "byteLength" : 2291016,
            "uri" : "data:application/octet-stream;base64,"
        }
    ]
}
