{
    "asset" : {
        "generator" : "Khronos Blender glTF 2.0 I/O",
        "version" : "2.0"
    },
    "scene" : 0,
    "scenes" : [
        {
            "name" : "Scene",
            "nodes" : [
                0
            ]
        }
    ],
    "nodes" : [
        {
            "mesh" : 0,
            "name" : "Terrain",
            "rotation" : [
                0.7071068286895752,
                0,
                0,
                0.7071067094802856
            ]
        }
    ],
    "meshes" : [
        {
            "name" : "Plane.002",
            "primitives" : [
                {
                    "attributes" : {
                        "POSITION" : 0,
                        "NORMAL" : 1
                    },
                    "indices" : 2
                }
            ]
        }
    ],
    "accessors" : [
        {
            "bufferView" : 0,
            "componentType" : 5126,
            "count" : 20353,
            "max" : [
                63.87546920776367,
                53.76866149902344,
                -58.58362579345703
            ],
            "min" : [
                -51.841060638427734,
                -56.32831954956055,
                -119.71712493896484
            ],
            "type" : "VEC3"
        },
        {
            "bufferView" : 1,
            "componentType" : 5126,
            "count" : 20353,
            "type" : "VEC3"
        },
        {
            "bufferView" : 2,
            "componentType" : 5123,
            "count" : 85098,
            "type" : "SCALAR"
        }
    ],
    "bufferViews" : [
        {
            "buffer" : 0,
            "byteLength" : 244236,
            "byteOffset" : 0
        },
        {
            "buffer" : 0,
            "byteLength" : 244236,
            "byteOffset" : 244236
        },
        {
            "buffer" : 0,
            "byteLength" : 170196,
            "byteOffset" : 488472
        }
    ],
    "buffers" : [
        {
            "byteLength" : 658668,
            "uri" : "data:application/octet-stream;base64,"
        }
    ]
}
