{
    "asset" : {
        "generator" : "Khronos Blender glTF 2.0 I/O",
        "version" : "2.0"
    },
    "scene" : 0,
    "scenes" : [
        {
            "name" : "Scene",
            "nodes" : [
                0
            ]
        }
    ],
    "nodes" : [
        {
            "mesh" : 0,
            "name" : "Icosphere",
            "scale" : [
                0.7852355241775513,
                0.7852355241775513,
                0.7852355241775513
            ]
        }
    ],
    "meshes" : [
        {
            "name" : "Icosphere",
            "primitives" : [
                {
                    "attributes" : {
                        "POSITION" : 0,
                        "NORMAL" : 1,
                        "TEXCOORD_0" : 2
                    },
                    "indices" : 3
                }
            ]
        }
    ],
    "accessors" : [
        {
            "bufferView" : 0,
            "componentType" : 5126,
            "count" : 1384,
            "max" : [
                1.347327709197998,
                0.8958417773246765,
                1.049992561340332
            ],
            "min" : [
                -1.3105294704437256,
                -1.0259850025177002,
                -1.4067310094833374
            ],
            "type" : "VEC3"
        },
        {
            "bufferView" : 1,
            "componentType" : 5126,
            "count" : 1384,
            "type" : "VEC3"
        },
        {
            "bufferView" : 2,
            "componentType" : 5126,
            "count" : 1384,
            "type" : "VEC2"
        },
        {
            "bufferView" : 3,
            "componentType" : 5123,
            "count" : 4698,
            "type" : "SCALAR"
        }
    ],
    "bufferViews" : [
        {
            "buffer" : 0,
            "byteLength" : 16608,
            "byteOffset" : 0
        },
        {
            "buffer" : 0,
            "byteLength" : 16608,
            "byteOffset" : 16608
        },
        {
            "buffer" : 0,
            "byteLength" : 11072,
            "byteOffset" : 33216
        },
        {
            "buffer" : 0,
            "byteLength" : 9396,
            "byteOffset" : 44288
        }
    ],
    "buffers" : [
        {
            "byteLength" : 53684,
            "uri" : "data:application/octet-stream;base64,"
        }
    ]
}
