{
    "asset" : {
        "generator" : "Khronos Blender glTF 2.0 I/O",
        "version" : "2.0"
    },
    "scene" : 0,
    "scenes" : [
        {
            "name" : "Scene",
            "nodes" : [
                0
            ]
        }
    ],
    "nodes" : [
        {
            "mesh" : 0,
            "name" : "Icosphere.009",
            "rotation" : [
                0,
                -0.48157158493995667,
                0,
                0.8764067888259888
            ],
            "scale" : [
                0.5257968306541443,
                0.5257967710494995,
                0.5257968306541443
            ]
        }
    ],
    "meshes" : [
        {
            "name" : "Icosphere.015",
            "primitives" : [
                {
                    "attributes" : {
                        "POSITION" : 0,
                        "NORMAL" : 1,
                        "TEXCOORD_0" : 2
                    },
                    "indices" : 3
                }
            ]
        }
    ],
    "accessors" : [
        {
            "bufferView" : 0,
            "componentType" : 5126,
            "count" : 1919,
            "max" : [
                1.7442706823349,
                1.1295400857925415,
                2.6423492431640625
            ],
            "min" : [
                -1.1628228425979614,
                -1.3802303075790405,
                -1.0014877319335938
            ],
            "type" : "VEC3"
        },
        {
            "bufferView" : 1,
            "componentType" : 5126,
            "count" : 1919,
            "type" : "VEC3"
        },
        {
            "bufferView" : 2,
            "componentType" : 5126,
            "count" : 1919,
            "type" : "VEC2"
        },
        {
            "bufferView" : 3,
            "componentType" : 5123,
            "count" : 7344,
            "type" : "SCALAR"
        }
    ],
    "bufferViews" : [
        {
            "buffer" : 0,
            "byteLength" : 23028,
            "byteOffset" : 0
        },
        {
            "buffer" : 0,
            "byteLength" : 23028,
            "byteOffset" : 23028
        },
        {
            "buffer" : 0,
            "byteLength" : 15352,
            "byteOffset" : 46056
        },
        {
            "buffer" : 0,
            "byteLength" : 14688,
            "byteOffset" : 61408
        }
    ],
    "buffers" : [
        {
            "byteLength" : 76096,
            "uri" : "data:application/octet-stream;base64,"
        }
    ]
}
