{
    "asset" : {
        "generator" : "Khronos Blender glTF 2.0 I/O",
        "version" : "2.0"
    },
    "scene" : 0,
    "scenes" : [
        {
            "name" : "Scene",
            "nodes" : [
                0
            ]
        }
    ],
    "nodes" : [
        {
            "mesh" : 0,
            "name" : "Icosphere.007",
            "scale" : [
                0.6072301864624023,
                0.6072301864624023,
                0.6072301864624023
            ]
        }
    ],
    "meshes" : [
        {
            "name" : "Icosphere.013",
            "primitives" : [
                {
                    "attributes" : {
                        "POSITION" : 0,
                        "NORMAL" : 1,
                        "TEXCOORD_0" : 2
                    },
                    "indices" : 3
                }
            ]
        }
    ],
    "accessors" : [
        {
            "bufferView" : 0,
            "componentType" : 5126,
            "count" : 988,
            "max" : [
                1.0461018085479736,
                0.37446069717407227,
                1.1623753309249878
            ],
            "min" : [
                -1.1943656206130981,
                -0.8810977935791016,
                -1.1935653686523438
            ],
            "type" : "VEC3"
        },
        {
            "bufferView" : 1,
            "componentType" : 5126,
            "count" : 988,
            "type" : "VEC3"
        },
        {
            "bufferView" : 2,
            "componentType" : 5126,
            "count" : 988,
            "type" : "VEC2"
        },
        {
            "bufferView" : 3,
            "componentType" : 5123,
            "count" : 3366,
            "type" : "SCALAR"
        }
    ],
    "bufferViews" : [
        {
            "buffer" : 0,
            "byteLength" : 11856,
            "byteOffset" : 0
        },
        {
            "buffer" : 0,
            "byteLength" : 11856,
            "byteOffset" : 11856
        },
        {
            "buffer" : 0,
            "byteLength" : 7904,
            "byteOffset" : 23712
        },
        {
            "buffer" : 0,
            "byteLength" : 6732,
            "byteOffset" : 31616
        }
    ],
    "buffers" : [
        {
            "byteLength" : 38348,
            "uri" : "data:application/octet-stream;base64,"
        }
    ]
}
