{
    "asset" : {
        "generator" : "Khronos Blender glTF 2.0 I/O",
        "version" : "2.0"
    },
    "scene" : 0,
    "scenes" : [
        {
            "name" : "Scene",
            "nodes" : [
                0
            ]
        }
    ],
    "nodes" : [
        {
            "mesh" : 0,
            "name" : "Icosphere.012",
            "rotation" : [
                0.8834836483001709,
                0,
                -0.4684620201587677,
                -2.492572264145565e-07
            ],
            "scale" : [
                0.49869540333747864,
                0.49869540333747864,
                0.49869540333747864
            ]
        }
    ],
    "meshes" : [
        {
            "name" : "Icosphere.017",
            "primitives" : [
                {
                    "attributes" : {
                        "POSITION" : 0,
                        "NORMAL" : 1,
                        "TEXCOORD_0" : 2
                    },
                    "indices" : 3
                }
            ]
        }
    ],
    "accessors" : [
        {
            "bufferView" : 0,
            "componentType" : 5126,
            "count" : 1531,
            "max" : [
                1.2929340600967407,
                0.982244074344635,
                1.4750202894210815
            ],
            "min" : [
                -1.6073567867279053,
                -1.3691880702972412,
                -1.852710485458374
            ],
            "type" : "VEC3"
        },
        {
            "bufferView" : 1,
            "componentType" : 5126,
            "count" : 1531,
            "type" : "VEC3"
        },
        {
            "bufferView" : 2,
            "componentType" : 5126,
            "count" : 1531,
            "type" : "VEC2"
        },
        {
            "bufferView" : 3,
            "componentType" : 5123,
            "count" : 5808,
            "type" : "SCALAR"
        }
    ],
    "bufferViews" : [
        {
            "buffer" : 0,
            "byteLength" : 18372,
            "byteOffset" : 0
        },
        {
            "buffer" : 0,
            "byteLength" : 18372,
            "byteOffset" : 18372
        },
        {
            "buffer" : 0,
            "byteLength" : 12248,
            "byteOffset" : 36744
        },
        {
            "buffer" : 0,
            "byteLength" : 11616,
            "byteOffset" : 48992
        }
    ],
    "buffers" : [
        {
            "byteLength" : 60608,
            "uri" : "data:application/octet-stream;base64,"
        }
    ]
}
