{
    "asset" : {
        "generator" : "Khronos Blender glTF 2.0 I/O",
        "version" : "2.0"
    },
    "scene" : 0,
    "scenes" : [
        {
            "name" : "Scene",
            "nodes" : [
                0
            ]
        }
    ],
    "nodes" : [
        {
            "mesh" : 0,
            "name" : "Icosphere.013",
            "scale" : [
                0.5870628356933594,
                0.5870628356933594,
                0.5870628356933594
            ]
        }
    ],
    "meshes" : [
        {
            "name" : "Icosphere.018",
            "primitives" : [
                {
                    "attributes" : {
                        "POSITION" : 0,
                        "NORMAL" : 1,
                        "TEXCOORD_0" : 2
                    },
                    "indices" : 3
                }
            ]
        }
    ],
    "accessors" : [
        {
            "bufferView" : 0,
            "componentType" : 5126,
            "count" : 1348,
            "max" : [
                1.3576364517211914,
                2.1915695667266846,
                1.2083466053009033
            ],
            "min" : [
                -1.1946170330047607,
                -0.3451951742172241,
                -1.602370023727417
            ],
            "type" : "VEC3"
        },
        {
            "bufferView" : 1,
            "componentType" : 5126,
            "count" : 1348,
            "type" : "VEC3"
        },
        {
            "bufferView" : 2,
            "componentType" : 5126,
            "count" : 1348,
            "type" : "VEC2"
        },
        {
            "bufferView" : 3,
            "componentType" : 5123,
            "count" : 5178,
            "type" : "SCALAR"
        }
    ],
    "bufferViews" : [
        {
            "buffer" : 0,
            "byteLength" : 16176,
            "byteOffset" : 0
        },
        {
            "buffer" : 0,
            "byteLength" : 16176,
            "byteOffset" : 16176
        },
        {
            "buffer" : 0,
            "byteLength" : 10784,
            "byteOffset" : 32352
        },
        {
            "buffer" : 0,
            "byteLength" : 10356,
            "byteOffset" : 43136
        }
    ],
    "buffers" : [
        {
            "byteLength" : 53492,
            "uri" : "data:application/octet-stream;base64,"
        }
    ]
}
