{
    "asset" : {
        "generator" : "Khronos Blender glTF 2.0 I/O",
        "version" : "2.0"
    },
    "scene" : 0,
    "scenes" : [
        {
            "name" : "Scene",
            "nodes" : [
                0
            ]
        }
    ],
    "nodes" : [
        {
            "mesh" : 0,
            "name" : "Icosphere.011",
            "rotation" : [
                0,
                -0.622469425201416,
                0,
                0.7826441526412964
            ],
            "scale" : [
                0.3792070150375366,
                0.3792070150375366,
                0.3792070150375366
            ]
        }
    ],
    "meshes" : [
        {
            "name" : "Icosphere.016",
            "primitives" : [
                {
                    "attributes" : {
                        "POSITION" : 0,
                        "NORMAL" : 1,
                        "TEXCOORD_0" : 2
                    },
                    "indices" : 3
                }
            ]
        }
    ],
    "accessors" : [
        {
            "bufferView" : 0,
            "componentType" : 5126,
            "count" : 2904,
            "max" : [
                2.238164186477661,
                1.6542658805847168,
                1.680893898010254
            ],
            "min" : [
                -1.748885989189148,
                -0.9365246891975403,
                -2.5499041080474854
            ],
            "type" : "VEC3"
        },
        {
            "bufferView" : 1,
            "componentType" : 5126,
            "count" : 2904,
            "type" : "VEC3"
        },
        {
            "bufferView" : 2,
            "componentType" : 5126,
            "count" : 2904,
            "type" : "VEC2"
        },
        {
            "bufferView" : 3,
            "componentType" : 5123,
            "count" : 11676,
            "type" : "SCALAR"
        }
    ],
    "bufferViews" : [
        {
            "buffer" : 0,
            "byteLength" : 34848,
            "byteOffset" : 0
        },
        {
            "buffer" : 0,
            "byteLength" : 34848,
            "byteOffset" : 34848
        },
        {
            "buffer" : 0,
            "byteLength" : 23232,
            "byteOffset" : 69696
        },
        {
            "buffer" : 0,
            "byteLength" : 23352,
            "byteOffset" : 92928
        }
    ],
    "buffers" : [
        {
            "byteLength" : 116280,
            "uri" : "data:application/octet-stream;base64,"
        }
    ]
}
