{
    "asset" : {
        "generator" : "Khronos Blender glTF 2.0 I/O",
        "version" : "2.0"
    },
    "scene" : 0,
    "scenes" : [
        {
            "name" : "Scene",
            "nodes" : [
                0
            ]
        }
    ],
    "nodes" : [
        {
            "mesh" : 0,
            "name" : "Icosphere.008",
            "rotation" : [
                0,
                -0.16711875796318054,
                0,
                0.9859368801116943
            ],
            "scale" : [
                -0.781378448009491,
                -0.781378448009491,
                -0.781378448009491
            ]
        }
    ],
    "meshes" : [
        {
            "name" : "Icosphere.014",
            "primitives" : [
                {
                    "attributes" : {
                        "POSITION" : 0,
                        "NORMAL" : 1,
                        "TEXCOORD_0" : 2
                    },
                    "indices" : 3
                }
            ]
        }
    ],
    "accessors" : [
        {
            "bufferView" : 0,
            "componentType" : 5126,
            "count" : 1262,
            "max" : [
                1.2590926885604858,
                0.49254652857780457,
                1.2153615951538086
            ],
            "min" : [
                -1.102362871170044,
                -1.1843591928482056,
                -1.0513015985488892
            ],
            "type" : "VEC3"
        },
        {
            "bufferView" : 1,
            "componentType" : 5126,
            "count" : 1262,
            "type" : "VEC3"
        },
        {
            "bufferView" : 2,
            "componentType" : 5126,
            "count" : 1262,
            "type" : "VEC2"
        },
        {
            "bufferView" : 3,
            "componentType" : 5123,
            "count" : 4128,
            "type" : "SCALAR"
        }
    ],
    "bufferViews" : [
        {
            "buffer" : 0,
            "byteLength" : 15144,
            "byteOffset" : 0
        },
        {
            "buffer" : 0,
            "byteLength" : 15144,
            "byteOffset" : 15144
        },
        {
            "buffer" : 0,
            "byteLength" : 10096,
            "byteOffset" : 30288
        },
        {
            "buffer" : 0,
            "byteLength" : 8256,
            "byteOffset" : 40384
        }
    ],
    "buffers" : [
        {
            "byteLength" : 48640,
            "uri" : "data:application/octet-stream;base64,"
        }
    ]
}
