{
    "asset" : {
        "generator" : "Khronos Blender glTF 2.0 I/O",
        "version" : "2.0"
    },
    "scene" : 0,
    "scenes" : [
        {
            "name" : "Scene",
            "nodes" : [
                0
            ]
        }
    ],
    "nodes" : [
        {
            "mesh" : 0,
            "name" : "Icosphere.014",
            "rotation" : [
                0,
                -0.9968407154083252,
                0,
                0.07942695915699005
            ],
            "scale" : [
                0.3113112449645996,
                0.3113112449645996,
                0.3113112449645996
            ]
        }
    ],
    "meshes" : [
        {
            "name" : "Icosphere.019",
            "primitives" : [
                {
                    "attributes" : {
                        "POSITION" : 0,
                        "NORMAL" : 1,
                        "TEXCOORD_0" : 2
                    },
                    "indices" : 3
                }
            ]
        }
    ],
    "accessors" : [
        {
            "bufferView" : 0,
            "componentType" : 5126,
            "count" : 4459,
            "max" : [
                2.367158889770508,
                1.0828884840011597,
                1.4888057708740234
            ],
            "min" : [
                -2.2313544750213623,
                -1.038909912109375,
                -4.259359359741211
            ],
            "type" : "VEC3"
        },
        {
            "bufferView" : 1,
            "componentType" : 5126,
            "count" : 4459,
            "type" : "VEC3"
        },
        {
            "bufferView" : 2,
            "componentType" : 5126,
            "count" : 4459,
            "type" : "VEC2"
        },
        {
            "bufferView" : 3,
            "componentType" : 5123,
            "count" : 18282,
            "type" : "SCALAR"
        }
    ],
    "bufferViews" : [
        {
            "buffer" : 0,
            "byteLength" : 53508,
            "byteOffset" : 0
        },
        {
            "buffer" : 0,
            "byteLength" : 53508,
            "byteOffset" : 53508
        },
        {
            "buffer" : 0,
            "byteLength" : 35672,
            "byteOffset" : 107016
        },
        {
            "buffer" : 0,
            "byteLength" : 36564,
            "byteOffset" : 142688
        }
    ],
    "buffers" : [
        {
            "byteLength" : 179252,
            "uri" : "data:application/octet-stream;base64,"
        }
    ]
}
