{
    "accessors" : [
        {
            "bufferView" : 0,
            "componentType" : 5123,
            "count" : 2544,
            "max" : [
                1695
            ],
            "min" : [
                0
            ],
            "type" : "SCALAR"
        },
        {
            "bufferView" : 1,
            "componentType" : 5126,
            "count" : 1696,
            "max" : [
                8.097330093383789,
                7.602703094482422,
                -5.9606828689575195
            ],
            "min" : [
                -7.146413803100586,
                -7.908909797668457,
                -20.58797836303711
            ],
            "type" : "VEC3"
        },
        {
            "bufferView" : 2,
            "componentType" : 5126,
            "count" : 1696,
            "max" : [
                0.9925161600112915,
                0.9503672122955322,
                0.1413194090127945
            ],
            "min" : [
                -0.9900874495506287,
                -0.9401975870132446,
                -0.9996997117996216
            ],
            "type" : "VEC3"
        },
        {
            "bufferView" : 3,
            "componentType" : 5126,
            "count" : 1696,
            "max" : [
                0.9917564392089844,
                0.9912664890289307,
                0.6340726613998413,
                1.0
            ],
            "min" : [
                -0.9878784418106079,
                -0.9943946599960327,
                -0.7656081318855286,
                1.0
            ],
            "type" : "VEC4"
        },
        {
            "bufferView" : 4,
            "componentType" : 5126,
            "count" : 1696,
            "max" : [
                0.9972050189971924,
                0.9953029998578131
            ],
            "min" : [
                0.0032019999343901873,
                0.005164980888366699
            ],
            "type" : "VEC2"
        },
        {
            "bufferView" : 5,
            "componentType" : 5123,
            "count" : 2817,
            "max" : [
                693
            ],
            "min" : [
                0
            ],
            "type" : "SCALAR"
        },
        {
            "bufferView" : 6,
            "componentType" : 5126,
            "count" : 694,
            "max" : [
                4.944491863250732,
                4.073710918426514,
                -0.0
            ],
            "min" : [
                -3.668884038925171,
                -4.626880168914795,
                -18.293487548828125
            ],
            "type" : "VEC3"
        },
        {
            "bufferView" : 7,
            "componentType" : 5126,
            "count" : 694,
            "max" : [
                0.999969482421875,
                0.9588610529899597,
                0.9503464102745056
            ],
            "min" : [
                -0.9966429471969604,
                -0.9809259176254272,
                -0.9660024046897888
            ],
            "type" : "VEC3"
        },
        {
            "bufferView" : 8,
            "componentType" : 5126,
            "count" : 694,
            "max" : [
                5.412649154663086,
                5.8711090087890625
            ],
            "min" : [
                -4.183835983276367,
                -4.392168045043945
            ],
            "type" : "VEC2"
        }
    ],
    "asset" : {
        "generator" : "Khronos Blender glTF 2.0 exporter",
        "version" : "2.0"
    },
    "bufferViews" : [
        {
            "buffer" : 0,
            "byteLength" : 5088,
            "byteOffset" : 0,
            "target" : 34963
        },
        {
            "buffer" : 0,
            "byteLength" : 20352,
            "byteOffset" : 5088,
            "target" : 34962
        },
        {
            "buffer" : 0,
            "byteLength" : 20352,
            "byteOffset" : 25440,
            "target" : 34962
        },
        {
            "buffer" : 0,
            "byteLength" : 27136,
            "byteOffset" : 45792,
            "target" : 34962
        },
        {
            "buffer" : 0,
            "byteLength" : 13568,
            "byteOffset" : 72928,
            "target" : 34962
        },
        {
            "buffer" : 0,
            "byteLength" : 5634,
            "byteOffset" : 86496,
            "target" : 34963
        },
        {
            "buffer" : 0,
            "byteLength" : 8328,
            "byteOffset" : 92132,
            "target" : 34962
        },
        {
            "buffer" : 0,
            "byteLength" : 8328,
            "byteOffset" : 100460,
            "target" : 34962
        },
        {
            "buffer" : 0,
            "byteLength" : 5552,
            "byteOffset" : 108788,
            "target" : 34962
        }
    ],
    "buffers" : [
        {
            "byteLength" : 114340,
            "uri" : "data:application/octet-stream;base64,"
        }
    ],
    "images" : [
        {
            "mimeType" : "image/png",
            "name" : "leafs1",
            "uri" : "data:image/png;base64,"
        },
        {
            "mimeType" : "image/jpeg",
            "name" : "bark1",
            "uri" : "data:image/jpeg;base64,"
        }
    ],
    "materials" : [
        {
            "alphaCutoff" : 0.5,
            "alphaMode" : "MASK",
            "doubleSided" : true,
            "name" : "Material.001",
            "pbrMetallicRoughness" : {
                "baseColorTexture" : {
                    "index" : 0
                },
                "metallicFactor" : 0.0
            }
        },
        {
            "name" : "Material.002",
            "pbrMetallicRoughness" : {
                "baseColorTexture" : {
                    "index" : 1
                },
                "metallicFactor" : 0.0
            }
        }
    ],
    "meshes" : [
        {
            "name" : "polySurface1042",
            "primitives" : [
                {
                    "attributes" : {
                        "NORMAL" : 2,
                        "POSITION" : 1,
                        "TANGENT" : 3,
                        "TEXCOORD_0" : 4
                    },
                    "indices" : 0,
                    "material" : 0
                }
            ]
        },
        {
            "name" : "polySurface457",
            "primitives" : [
                {
                    "attributes" : {
                        "NORMAL" : 7,
                        "POSITION" : 6,
                        "TEXCOORD_0" : 8
                    },
                    "indices" : 5,
                    "material" : 1
                }
            ]
        }
    ],
    "nodes" : [
        {
            "name" : "Camera",
            "rotation" : [
                0.6445714831352234,
                0.0,
                -0.0,
                0.7645440697669983
            ],
            "translation" : [
                0.0,
                18.07927894592285,
                40.467525482177734
            ]
        },
        {
            "mesh" : 0,
            "name" : "polySurface1042",
            "rotation" : [
                0.7071068286895752,
                0.0,
                -0.0,
                0.7071067094802856
            ]
        },
        {
            "mesh" : 1,
            "name" : "polySurface457",
            "rotation" : [
                0.7071068286895752,
                0.0,
                -0.0,
                0.7071067094802856
            ]
        },
        {
            "name" : "Sun",
            "rotation" : [
                0.26371026039123535,
                -0.04586225003004074,
                -0.24565765261650085,
                0.9316683411598206
            ],
            "scale" : [
                0.9999999403953552,
                1.0,
                0.9999999403953552
            ],
            "translation" : [
                9.136630058288574,
                11.196737289428711,
                0.6184463500976562
            ]
        }
    ],
    "samplers" : [
        {}
    ],
    "scene" : 0,
    "scenes" : [
        {
            "name" : "Scene",
            "nodes" : [
                2,
                1,
                3,
                0
            ]
        }
    ],
    "textures" : [
        {
            "sampler" : 0,
            "source" : 0
        },
        {
            "sampler" : 0,
            "source" : 1
        }
    ]
}
