{
    "accessors" : [
        {
            "bufferView" : 0,
            "componentType" : 5123,
            "count" : 1557,
            "max" : [
                414
            ],
            "min" : [
                0
            ],
            "type" : "SCALAR"
        },
        {
            "bufferView" : 1,
            "componentType" : 5126,
            "count" : 415,
            "max" : [
                4.944491863250732,
                4.073710918426514,
                -0.0
            ],
            "min" : [
                -3.668884038925171,
                -4.626880168914795,
                -18.293487548828125
            ],
            "type" : "VEC3"
        },
        {
            "bufferView" : 2,
            "componentType" : 5126,
            "count" : 415,
            "max" : [
                0.999969482421875,
                0.9544358849525452,
                0.9374980926513672
            ],
            "min" : [
                -0.9966429471969604,
                -0.982360303401947,
                -0.9275795817375183
            ],
            "type" : "VEC3"
        },
        {
            "bufferView" : 3,
            "componentType" : 5126,
            "count" : 415,
            "max" : [
                5.412649154663086,
                5.8711090087890625
            ],
            "min" : [
                -4.183835983276367,
                -4.392168045043945
            ],
            "type" : "VEC2"
        },
        {
            "bufferView" : 4,
            "componentType" : 5123,
            "count" : 1272,
            "max" : [
                847
            ],
            "min" : [
                0
            ],
            "type" : "SCALAR"
        },
        {
            "bufferView" : 5,
            "componentType" : 5126,
            "count" : 848,
            "max" : [
                8.097330093383789,
                7.602703094482422,
                -5.9606828689575195
            ],
            "min" : [
                -7.146413803100586,
                -7.908909797668457,
                -20.234359741210938
            ],
            "type" : "VEC3"
        },
        {
            "bufferView" : 6,
            "componentType" : 5126,
            "count" : 848,
            "max" : [
                0.9738383293151855,
                0.8935120105743408,
                0.16188861429691315
            ],
            "min" : [
                -0.9793291091918945,
                -0.9492743611335754,
                -0.9999924898147583
            ],
            "type" : "VEC3"
        },
        {
            "bufferView" : 7,
            "componentType" : 5126,
            "count" : 848,
            "max" : [
                0.9925896525382996,
                0.9982324838638306,
                0.31936129927635193,
                1.0
            ],
            "min" : [
                -0.995966374874115,
                -0.9924678802490234,
                -0.7175877690315247,
                1.0
            ],
            "type" : "VEC4"
        },
        {
            "bufferView" : 8,
            "componentType" : 5126,
            "count" : 848,
            "max" : [
                0.9972050189971924,
                0.9953029998578131
            ],
            "min" : [
                0.0032019999343901873,
                0.005164980888366699
            ],
            "type" : "VEC2"
        }
    ],
    "asset" : {
        "generator" : "Khronos Blender glTF 2.0 exporter",
        "version" : "2.0"
    },
    "bufferViews" : [
        {
            "buffer" : 0,
            "byteLength" : 3114,
            "byteOffset" : 0,
            "target" : 34963
        },
        {
            "buffer" : 0,
            "byteLength" : 4980,
            "byteOffset" : 3116,
            "target" : 34962
        },
        {
            "buffer" : 0,
            "byteLength" : 4980,
            "byteOffset" : 8096,
            "target" : 34962
        },
        {
            "buffer" : 0,
            "byteLength" : 3320,
            "byteOffset" : 13076,
            "target" : 34962
        },
        {
            "buffer" : 0,
            "byteLength" : 2544,
            "byteOffset" : 16396,
            "target" : 34963
        },
        {
            "buffer" : 0,
            "byteLength" : 10176,
            "byteOffset" : 18940,
            "target" : 34962
        },
        {
            "buffer" : 0,
            "byteLength" : 10176,
            "byteOffset" : 29116,
            "target" : 34962
        },
        {
            "buffer" : 0,
            "byteLength" : 13568,
            "byteOffset" : 39292,
            "target" : 34962
        },
        {
            "buffer" : 0,
            "byteLength" : 6784,
            "byteOffset" : 52860,
            "target" : 34962
        }
    ],
    "buffers" : [
        {
            "byteLength" : 59644,
            "uri" : "data:application/octet-stream;base64,"
        }
    ],
    "images" : [
        {
            "mimeType" : "image/png",
            "name" : "bark1",
            "uri" : "data:image/png;base64,"
        },
        {
            "mimeType" : "image/png",
            "name" : "leafs1",
            "uri" : "data:image/png;base64,"
        }
    ],
    "materials" : [
        {
            "name" : "Material.001",
            "pbrMetallicRoughness" : {
                "baseColorTexture" : {
                    "index" : 0
                },
                "metallicFactor" : 0.0
            }
        },
        {
            "alphaCutoff" : 0.5,
            "alphaMode" : "MASK",
            "doubleSided" : true,
            "name" : "Material.002",
            "pbrMetallicRoughness" : {
                "baseColorTexture" : {
                    "index" : 1
                },
                "metallicFactor" : 0.0
            }
        }
    ],
    "meshes" : [
        {
            "name" : "polySurface459",
            "primitives" : [
                {
                    "attributes" : {
                        "NORMAL" : 2,
                        "POSITION" : 1,
                        "TEXCOORD_0" : 3
                    },
                    "indices" : 0,
                    "material" : 0
                }
            ]
        },
        {
            "name" : "polySurface1043",
            "primitives" : [
                {
                    "attributes" : {
                        "NORMAL" : 6,
                        "POSITION" : 5,
                        "TANGENT" : 7,
                        "TEXCOORD_0" : 8
                    },
                    "indices" : 4,
                    "material" : 1
                }
            ]
        }
    ],
    "nodes" : [
        {
            "name" : "Camera",
            "rotation" : [
                0.7071068286895752,
                0.0,
                -0.0,
                0.7071068286895752
            ],
            "translation" : [
                0.0,
                8.436351776123047,
                29.58935546875
            ]
        },
        {
            "mesh" : 1,
            "name" : "polySurface1043",
            "rotation" : [
                0.7071068286895752,
                0.0,
                -0.0,
                0.7071067094802856
            ]
        },
        {
            "mesh" : 0,
            "name" : "polySurface459",
            "rotation" : [
                0.7071068286895752,
                0.0,
                -0.0,
                0.7071067094802856
            ]
        },
        {
            "name" : "Sun",
            "rotation" : [
                0.06368304044008255,
                -0.18205903470516205,
                -0.2698326110839844,
                0.9433925747871399
            ],
            "scale" : [
                1.0,
                1.0,
                0.9999999403953552
            ],
            "translation" : [
                8.155813217163086,
                18.530324935913086,
                13.473664283752441
            ]
        }
    ],
    "samplers" : [
        {}
    ],
    "scene" : 0,
    "scenes" : [
        {
            "name" : "Scene",
            "nodes" : [
                3,
                1,
                2,
                0
            ]
        }
    ],
    "textures" : [
        {
            "sampler" : 0,
            "source" : 0
        },
        {
            "sampler" : 0,
            "source" : 1
        }
    ]
}
