{
    "accessors" : [
        {
            "bufferView" : 0,
            "componentType" : 5123,
            "count" : 181584,
            "max" : [
                30555
            ],
            "min" : [
                0
            ],
            "type" : "SCALAR"
        },
        {
            "bufferView" : 1,
            "componentType" : 5126,
            "count" : 30556,
            "max" : [
                83.60205841064453,
                119.71712493896484,
                76.18093872070312
            ],
            "min" : [
                -68.36436462402344,
                7.403251647949219,
                -75.78787231445312
            ],
            "type" : "VEC3"
        },
        {
            "bufferView" : 2,
            "componentType" : 5126,
            "count" : 30556,
            "max" : [
                0.999176025390625,
                0.999969482421875,
                0.9976500868797302
            ],
            "min" : [
                -0.9890438318252563,
                -0.32099369168281555,
                -0.9911496043205261
            ],
            "type" : "VEC3"
        },
        {
            "bufferView" : 3,
            "componentType" : 5126,
            "count" : 30556,
            "max" : [
                0.9903218746185303,
                0.9942607283592224,
                0.778846025466919,
                1.0
            ],
            "min" : [
                -0.8468336462974548,
                -0.9957955479621887,
                -0.9999998211860657,
                1.0
            ],
            "type" : "VEC4"
        },
        {
            "bufferView" : 4,
            "componentType" : 5126,
            "count" : 30556,
            "max" : [
                0.9999017715454102,
                0.99990176641586
            ],
            "min" : [
                9.823358413996175e-05,
                0.03472858667373657
            ],
            "type" : "VEC2"
        }
    ],
    "asset" : {
        "generator" : "Khronos Blender glTF 2.0 exporter",
        "version" : "2.0"
    },
    "bufferViews" : [
        {
            "buffer" : 0,
            "byteLength" : 363168,
            "byteOffset" : 0,
            "target" : 34963
        },
        {
            "buffer" : 0,
            "byteLength" : 366672,
            "byteOffset" : 363168,
            "target" : 34962
        },
        {
            "buffer" : 0,
            "byteLength" : 366672,
            "byteOffset" : 729840,
            "target" : 34962
        },
        {
            "buffer" : 0,
            "byteLength" : 488896,
            "byteOffset" : 1096512,
            "target" : 34962
        },
        {
            "buffer" : 0,
            "byteLength" : 244448,
            "byteOffset" : 1585408,
            "target" : 34962
        }
    ],
    "buffers" : [
        {
            "byteLength" : 1829856,
            "uri" : "data:application/octet-stream;base64,"
        }
    ],
    "materials" : [
        {
            "name" : "Material",
            "pbrMetallicRoughness" : {
                "metallicFactor" : 0.0
            }
        }
    ],
    "meshes" : [
        {
            "name" : "Plane",
            "primitives" : [
                {
                    "attributes" : {
                        "NORMAL" : 2,
                        "POSITION" : 1,
                        "TANGENT" : 3,
                        "TEXCOORD_0" : 4
                    },
                    "indices" : 0,
                    "material" : 0
                }
            ]
        }
    ],
    "nodes" : [
        {
            "mesh" : 0,
            "name" : "Terrain"
        }
    ],
    "scene" : 0,
    "scenes" : [
        {
            "name" : "Scene",
            "nodes" : [
                0
            ]
        }
    ]
}
